# xmcd
#
# Track frame offsets:
#	150
#	16700
#	31865
#	49538
#	65433
#	83263
#	99477
#	116708
#	131098
#	147635
#	162875
#	181580
#	196325
#
# Disc length: 2864 seconds
#
# Revision: 0
# Processed by: cddbd v1.5.2PL0 Copyright (c) Steve Scherf et al.
# Submitted via: audiograbber 1.83.01
#
DISCID=9e0b2e0d
DTITLE=Wills, Mark - Permanently
DYEAR=2000
DGENRE=Country
TTITLE0=This can't be love
TTITLE1=Rich man
TTITLE2=The perfect conversation
TTITLE3=Still waiting
TTITLE4=Because I love you
TTITLE5=Right here
TTITLE6=Time machine
TTITLE7=Permanently
TTITLE8=Almost doesn't count
TTITLE9=Forget about love
TTITLE10=In my arms
TTITLE11=Everything there is to know about you
TTITLE12=Back at one
EXTD=
EXTT0=
EXTT1=
EXTT2=
EXTT3=
EXTT4=
EXTT5=
EXTT6=
EXTT7=
EXTT8=
EXTT9=
EXTT10=
EXTT11=
EXTT12=
PLAYORDER=
